<svg width="36" height="36" viewBox="0 0 36 36" fill="none" xmlns="http://www.w3.org/2000/svg">
<path d="M24.75 12.945C24.135 12.945 23.625 12.435 23.625 11.82V9.74996C23.625 8.17496 22.95 6.64496 21.78 5.57996C20.595 4.49996 19.065 4.00496 17.445 4.15496C14.745 4.40996 12.375 7.16996 12.375 10.05V11.505C12.375 12.12 11.865 12.63 11.25 12.63C10.635 12.63 10.125 12.12 10.125 11.505V10.035C10.125 5.99996 13.38 2.27996 17.235 1.90496C19.485 1.69496 21.645 2.39996 23.295 3.91496C24.93 5.39996 25.875 7.52996 25.875 9.74996V11.82C25.875 12.435 25.365 12.945 24.75 12.945Z" fill="white"/>
<path d="M22.4997 34.125H13.4997C6.56973 34.125 5.27973 30.9 4.94973 27.765L3.82473 18.78C3.65973 17.16 3.59973 14.835 5.17473 13.095C6.52473 11.595 8.75973 10.875 11.9997 10.875H23.9997C27.2547 10.875 29.4897 11.61 30.8247 13.095C32.3847 14.835 32.3397 17.16 32.1747 18.75L31.0497 27.765C30.7197 30.9 29.4297 34.125 22.4997 34.125ZM11.9997 13.125C9.46473 13.125 7.72473 13.62 6.83973 14.61C6.10473 15.42 5.86473 16.665 6.05973 18.525L7.18473 27.51C7.43973 29.91 8.09973 31.89 13.4997 31.89H22.4997C27.8997 31.89 28.5597 29.925 28.8147 27.54L29.9397 18.525C30.1347 16.695 29.8947 15.45 29.1597 14.625C28.2747 13.62 26.5347 13.125 23.9997 13.125H11.9997Z" fill="white"/>
<path d="M23.1302 19.7251C22.2902 19.7251 21.6152 19.0501 21.6152 18.2251C21.6152 17.4001 22.2902 16.7251 23.1152 16.7251C23.9402 16.7251 24.6152 17.4001 24.6152 18.2251C24.6152 19.0501 23.9552 19.7251 23.1302 19.7251Z" fill="white"/>
<path d="M12.6302 19.7251C11.7902 19.7251 11.1152 19.0501 11.1152 18.2251C11.1152 17.4001 11.7902 16.7251 12.6152 16.7251C13.4402 16.7251 14.1152 17.4001 14.1152 18.2251C14.1152 19.0501 13.4552 19.7251 12.6302 19.7251Z" fill="white"/>
</svg>
